solid Exported from Blender-2.79 (sub 0)
facet normal -0.000001 0.098017 0.995185
outer loop
vertex -1.000000 -0.000000 -7.000000
vertex 1.000000 0.000000 -7.000000
vertex 1.000000 0.195090 -7.019215
endloop
endfacet
facet normal 0.000001 0.098017 0.995185
outer loop
vertex 1.000000 0.195090 -7.019215
vertex -1.000000 0.195090 -7.019215
vertex -1.000000 -0.000000 -7.000000
endloop
endfacet
facet normal 0.000000 0.290285 0.956940
outer loop
vertex -1.000000 0.195090 -7.019215
vertex 1.000000 0.195090 -7.019215
vertex 1.000000 0.382683 -7.076120
endloop
endfacet
facet normal 0.000000 0.290285 0.956940
outer loop
vertex 1.000000 0.382683 -7.076120
vertex -1.000000 0.382683 -7.076120
vertex -1.000000 0.195090 -7.019215
endloop
endfacet
facet normal 0.000000 0.471397 0.881921
outer loop
vertex -1.000000 0.382683 -7.076120
vertex 1.000000 0.382683 -7.076120
vertex 1.000000 0.555570 -7.168530
endloop
endfacet
facet normal 0.000000 0.471398 0.881921
outer loop
vertex 1.000000 0.555570 -7.168530
vertex -1.000000 0.555570 -7.168530
vertex -1.000000 0.382683 -7.076120
endloop
endfacet
facet normal 0.000000 0.634394 0.773010
outer loop
vertex -1.000000 0.555570 -7.168530
vertex 1.000000 0.555570 -7.168530
vertex 1.000000 0.707107 -7.292893
endloop
endfacet
facet normal 0.000000 0.634394 0.773010
outer loop
vertex 1.000000 0.707107 -7.292893
vertex -1.000000 0.707107 -7.292893
vertex -1.000000 0.555570 -7.168530
endloop
endfacet
facet normal 0.000000 0.773010 0.634394
outer loop
vertex -1.000000 0.707107 -7.292893
vertex 1.000000 0.707107 -7.292893
vertex 1.000000 0.831470 -7.444430
endloop
endfacet
facet normal 0.000000 0.773010 0.634394
outer loop
vertex 1.000000 0.831470 -7.444430
vertex -1.000000 0.831470 -7.444430
vertex -1.000000 0.707107 -7.292893
endloop
endfacet
facet normal 0.000000 0.881921 0.471396
outer loop
vertex -1.000000 0.831470 -7.444430
vertex 1.000000 0.831470 -7.444430
vertex 1.000000 0.923880 -7.617317
endloop
endfacet
facet normal 0.000000 0.881922 0.471396
outer loop
vertex 1.000000 0.923880 -7.617317
vertex -1.000000 0.923879 -7.617317
vertex -1.000000 0.831470 -7.444430
endloop
endfacet
facet normal 0.000000 0.956940 0.290285
outer loop
vertex -1.000000 0.923879 -7.617317
vertex 1.000000 0.923880 -7.617317
vertex 1.000000 0.980785 -7.804910
endloop
endfacet
facet normal -0.000000 0.956940 0.290285
outer loop
vertex 1.000000 0.980785 -7.804910
vertex -1.000000 0.980785 -7.804910
vertex -1.000000 0.923879 -7.617317
endloop
endfacet
facet normal -0.000000 0.995185 0.098017
outer loop
vertex -1.000000 0.980785 -7.804910
vertex 1.000000 0.980785 -7.804910
vertex 1.000000 1.000000 -8.000000
endloop
endfacet
facet normal 0.000000 0.995185 0.098018
outer loop
vertex 1.000000 1.000000 -8.000000
vertex -1.000000 1.000000 -8.000000
vertex -1.000000 0.980785 -7.804910
endloop
endfacet
facet normal 0.000000 0.995185 -0.098017
outer loop
vertex -1.000000 1.000000 -8.000000
vertex 1.000000 1.000000 -8.000000
vertex 1.000000 0.980785 -8.195090
endloop
endfacet
facet normal -0.000000 0.995185 -0.098017
outer loop
vertex 1.000000 0.980785 -8.195090
vertex -1.000000 0.980785 -8.195090
vertex -1.000000 1.000000 -8.000000
endloop
endfacet
facet normal 0.000000 0.956940 -0.290286
outer loop
vertex -1.000000 0.980785 -8.195090
vertex 1.000000 0.980785 -8.195090
vertex 1.000000 0.923880 -8.382683
endloop
endfacet
facet normal -0.000000 0.956940 -0.290286
outer loop
vertex 1.000000 0.923880 -8.382683
vertex -1.000000 0.923880 -8.382683
vertex -1.000000 0.980785 -8.195090
endloop
endfacet
facet normal 0.000000 0.881922 -0.471395
outer loop
vertex -1.000000 0.923880 -8.382683
vertex 1.000000 0.923880 -8.382683
vertex 1.000000 0.831470 -8.555571
endloop
endfacet
facet normal 0.000000 0.881923 -0.471394
outer loop
vertex 1.000000 0.831470 -8.555571
vertex -1.000000 0.831470 -8.555571
vertex -1.000000 0.923880 -8.382683
endloop
endfacet
facet normal 0.000000 0.773009 -0.634395
outer loop
vertex -1.000000 0.831470 -8.555571
vertex 1.000000 0.831470 -8.555571
vertex 1.000000 0.707107 -8.707107
endloop
endfacet
facet normal 0.000000 0.773009 -0.634395
outer loop
vertex 1.000000 0.707107 -8.707107
vertex -1.000000 0.707107 -8.707107
vertex -1.000000 0.831470 -8.555571
endloop
endfacet
facet normal 0.000001 0.634393 -0.773010
outer loop
vertex -1.000000 0.707107 -8.707107
vertex 1.000000 0.707107 -8.707107
vertex 1.000000 0.555570 -8.831470
endloop
endfacet
facet normal -0.000001 0.634394 -0.773010
outer loop
vertex 1.000000 0.555570 -8.831470
vertex -1.000000 0.555570 -8.831470
vertex -1.000000 0.707107 -8.707107
endloop
endfacet
facet normal 0.000000 0.471397 -0.881921
outer loop
vertex -1.000000 0.555570 -8.831470
vertex 1.000000 0.555570 -8.831470
vertex 1.000000 0.382683 -8.923880
endloop
endfacet
facet normal 0.000000 0.471397 -0.881921
outer loop
vertex 1.000000 0.382683 -8.923880
vertex -1.000000 0.382683 -8.923880
vertex -1.000000 0.555570 -8.831470
endloop
endfacet
facet normal -0.000001 0.290285 -0.956940
outer loop
vertex -1.000000 0.382683 -8.923880
vertex 1.000000 0.382683 -8.923880
vertex 1.000000 0.195090 -8.980785
endloop
endfacet
facet normal 0.000000 0.290285 -0.956940
outer loop
vertex 1.000000 0.195090 -8.980785
vertex -1.000000 0.195090 -8.980785
vertex -1.000000 0.382683 -8.923880
endloop
endfacet
facet normal 0.000001 0.098017 -0.995185
outer loop
vertex -1.000000 0.195090 -8.980785
vertex 1.000000 0.195090 -8.980785
vertex 1.000000 -0.000000 -9.000000
endloop
endfacet
facet normal -0.000001 0.098017 -0.995185
outer loop
vertex 1.000000 -0.000000 -9.000000
vertex -1.000000 -0.000000 -9.000000
vertex -1.000000 0.195090 -8.980785
endloop
endfacet
facet normal 0.000000 -0.098017 -0.995185
outer loop
vertex -1.000000 -0.000000 -9.000000
vertex 1.000000 -0.000000 -9.000000
vertex 1.000000 -0.195091 -8.980785
endloop
endfacet
facet normal 0.000000 -0.098017 -0.995185
outer loop
vertex 1.000000 -0.195091 -8.980785
vertex -1.000000 -0.195091 -8.980785
vertex -1.000000 -0.000000 -9.000000
endloop
endfacet
facet normal 0.000000 -0.290285 -0.956940
outer loop
vertex -1.000000 -0.195091 -8.980785
vertex 1.000000 -0.195091 -8.980785
vertex 1.000000 -0.382684 -8.923880
endloop
endfacet
facet normal 0.000001 -0.290285 -0.956940
outer loop
vertex 1.000000 -0.382684 -8.923880
vertex -1.000000 -0.382684 -8.923880
vertex -1.000000 -0.195091 -8.980785
endloop
endfacet
facet normal 0.000000 -0.471397 -0.881921
outer loop
vertex -1.000000 -0.382684 -8.923880
vertex 1.000000 -0.382684 -8.923880
vertex 1.000000 -0.555571 -8.831470
endloop
endfacet
facet normal -0.000001 -0.471397 -0.881921
outer loop
vertex 1.000000 -0.555571 -8.831470
vertex -1.000000 -0.555571 -8.831470
vertex -1.000000 -0.382684 -8.923880
endloop
endfacet
facet normal 0.000000 -0.634394 -0.773010
outer loop
vertex -1.000000 -0.555571 -8.831470
vertex 1.000000 -0.555571 -8.831470
vertex 1.000000 -0.707107 -8.707107
endloop
endfacet
facet normal 0.000000 -0.634393 -0.773010
outer loop
vertex 1.000000 -0.707107 -8.707107
vertex -1.000000 -0.707107 -8.707107
vertex -1.000000 -0.555571 -8.831470
endloop
endfacet
facet normal 0.000001 -0.773011 -0.634392
outer loop
vertex -1.000000 -0.707107 -8.707107
vertex 1.000000 -0.707107 -8.707107
vertex 1.000000 -0.831470 -8.555570
endloop
endfacet
facet normal -0.000001 -0.773012 -0.634392
outer loop
vertex 1.000000 -0.831470 -8.555570
vertex -1.000000 -0.831470 -8.555570
vertex -1.000000 -0.707107 -8.707107
endloop
endfacet
facet normal 0.000000 -0.881922 -0.471396
outer loop
vertex -1.000000 -0.831470 -8.555570
vertex 1.000000 -0.831470 -8.555570
vertex 1.000000 -0.923880 -8.382683
endloop
endfacet
facet normal 0.000000 -0.881921 -0.471396
outer loop
vertex 1.000000 -0.923880 -8.382683
vertex -1.000000 -0.923880 -8.382683
vertex -1.000000 -0.831470 -8.555570
endloop
endfacet
facet normal 0.000000 -0.956941 -0.290283
outer loop
vertex -1.000000 -0.923880 -8.382683
vertex 1.000000 -0.923880 -8.382683
vertex 1.000000 -0.980785 -8.195089
endloop
endfacet
facet normal 0.000000 -0.956941 -0.290284
outer loop
vertex 1.000000 -0.980785 -8.195089
vertex -1.000000 -0.980785 -8.195089
vertex -1.000000 -0.923880 -8.382683
endloop
endfacet
facet normal 0.000000 -0.995185 -0.098016
outer loop
vertex -1.000000 -0.980785 -8.195089
vertex 1.000000 -0.980785 -8.195089
vertex 1.000000 -1.000000 -7.999999
endloop
endfacet
facet normal 0.000000 -0.995185 -0.098017
outer loop
vertex 1.000000 -1.000000 -7.999999
vertex -1.000000 -1.000000 -7.999999
vertex -1.000000 -0.980785 -8.195089
endloop
endfacet
facet normal 0.000000 -0.995185 0.098019
outer loop
vertex -1.000000 -1.000000 -7.999999
vertex 1.000000 -1.000000 -7.999999
vertex 1.000000 -0.980785 -7.804909
endloop
endfacet
facet normal 0.000000 -0.995185 0.098018
outer loop
vertex 1.000000 -0.980785 -7.804909
vertex -1.000000 -0.980785 -7.804909
vertex -1.000000 -1.000000 -7.999999
endloop
endfacet
facet normal 0.000000 -0.956940 0.290285
outer loop
vertex -1.000000 -0.980785 -7.804909
vertex 1.000000 -0.980785 -7.804909
vertex 1.000000 -0.923879 -7.617315
endloop
endfacet
facet normal 0.000000 -0.956940 0.290285
outer loop
vertex 1.000000 -0.923879 -7.617315
vertex -1.000000 -0.923879 -7.617315
vertex -1.000000 -0.980785 -7.804909
endloop
endfacet
facet normal 0.000000 -0.881920 0.471399
outer loop
vertex -1.000000 -0.923879 -7.617315
vertex 1.000000 -0.923879 -7.617315
vertex 1.000000 -0.831469 -7.444429
endloop
endfacet
facet normal 0.000000 -0.881920 0.471398
outer loop
vertex 1.000000 -0.831469 -7.444429
vertex -1.000000 -0.831469 -7.444429
vertex -1.000000 -0.923879 -7.617315
endloop
endfacet
facet normal 0.000000 -0.773010 0.634394
outer loop
vertex -1.000000 -0.831469 -7.444429
vertex 1.000000 -0.831469 -7.444429
vertex 1.000000 -0.707106 -7.292892
endloop
endfacet
facet normal 0.000000 -0.773010 0.634394
outer loop
vertex 1.000000 -0.707106 -7.292892
vertex -1.000000 -0.707106 -7.292892
vertex -1.000000 -0.831469 -7.444429
endloop
endfacet
facet normal 0.000000 -0.634393 0.773010
outer loop
vertex -1.000000 -0.707106 -7.292892
vertex 1.000000 -0.707106 -7.292892
vertex 1.000000 -0.555569 -7.168530
endloop
endfacet
facet normal 0.000000 -0.634393 0.773011
outer loop
vertex 1.000000 -0.555569 -7.168530
vertex -1.000000 -0.555569 -7.168530
vertex -1.000000 -0.707106 -7.292892
endloop
endfacet
facet normal 0.000000 -0.471395 0.881922
outer loop
vertex -1.000000 -0.555569 -7.168530
vertex 1.000000 -0.555569 -7.168530
vertex 1.000000 -0.382682 -7.076120
endloop
endfacet
facet normal -0.000001 -0.471395 0.881922
outer loop
vertex 1.000000 -0.382682 -7.076120
vertex -1.000000 -0.382682 -7.076120
vertex -1.000000 -0.555569 -7.168530
endloop
endfacet
facet normal 0.000000 -0.290282 0.956941
outer loop
vertex -1.000000 -0.382682 -7.076120
vertex 1.000000 -0.382682 -7.076120
vertex 1.000000 -0.195089 -7.019215
endloop
endfacet
facet normal 0.000000 -0.290282 0.956941
outer loop
vertex 1.000000 -0.195089 -7.019215
vertex -1.000000 -0.195089 -7.019215
vertex -1.000000 -0.382682 -7.076120
endloop
endfacet
facet normal 0.000000 -0.098017 0.995185
outer loop
vertex 1.000000 0.000000 -7.000000
vertex -1.000000 -0.000000 -7.000000
vertex -1.000000 -0.195089 -7.019215
endloop
endfacet
facet normal 0.000000 -0.098017 0.995185
outer loop
vertex -1.000000 -0.195089 -7.019215
vertex 1.000000 -0.195089 -7.019215
vertex 1.000000 0.000000 -7.000000
endloop
endfacet
endsolid Exported from Blender-2.79 (sub 0)
